<svg xmlns="http://www.w3.org/2000/svg" width="412" height="56"><path fill="#FFF" fill-rule="evenodd" d="M.33 3.18h8.44V55H.33V3.18zM35.48 55h-8.93l-9.77-18.77c-.14 0-.3 0-.46.03-.16.03-.4.04-.73.04h-3.94v-6.2h4.78c1.03 0 2.06-.17 3.1-.52a7.68 7.68 0 0 0 2.8-1.72 8.44 8.44 0 0 0 2.05-3.34 15.78 15.78 0 0 0 .42-8.23 8.36 8.36 0 0 0-4.5-5.7 11.35 11.35 0 0 0-5.2-1.01h-3.45v-6.4h3.58c2.2 0 4.39.35 6.54 1.05 2.16.7 4.1 1.76 5.8 3.17 1.72 1.4 3.1 3.1 4.15 5.1 1.06 1.99 1.58 4.23 1.58 6.71 0 3.75-.86 6.94-2.6 9.56a15.6 15.6 0 0 1-7.03 5.84L35.48 55zm21.6-39.87A17 17 0 0 1 64.13 17c2.1 1.1 3.88 2.55 5.3 4.36 1.44 1.8 2.55 3.9 3.35 6.29.8 2.39 1.2 4.94 1.2 7.66 0 2.72-.42 5.26-1.24 7.63a19.76 19.76 0 0 1-3.41 6.19 16.7 16.7 0 0 1-5.34 4.25 17.95 17.95 0 0 1-6.9 1.9v-6.75c2.35-.51 4.26-2 5.74-4.43 1.47-2.44 2.21-5.37 2.21-8.79 0-1.73-.17-3.36-.53-4.88-.35-1.53-.87-2.9-1.58-4.12a10.74 10.74 0 0 0-2.53-3.02 7.4 7.4 0 0 0-3.3-1.55v-6.6zM37.48 35.17c0-2.72.4-5.25 1.2-7.6.8-2.34 1.93-4.39 3.4-6.14a17.37 17.37 0 0 1 5.31-4.26 18.28 18.28 0 0 1 6.82-1.97v6.54c-2.34.52-4.22 2-5.62 4.43-1.4 2.44-2.11 5.37-2.11 8.8 0 1.73.17 3.37.53 4.91.35 1.55.85 2.93 1.5 4.15a10.07 10.07 0 0 0 2.43 3.02 6.6 6.6 0 0 0 3.27 1.48v6.75c-2.58-.19-4.9-.83-6.96-1.93a17.17 17.17 0 0 1-5.27-4.33 19.07 19.07 0 0 1-3.34-6.25 24.52 24.52 0 0 1-1.16-7.6zM71.85 5.01c0 1.4-.5 2.6-1.47 3.58a4.88 4.88 0 0 1-3.6 1.48c-1.4 0-2.6-.5-3.58-1.48a4.88 4.88 0 0 1-1.47-3.58 4.94 4.94 0 0 1 5.06-5c1.4 0 2.6.49 3.58 1.45A4.77 4.77 0 0 1 71.86 5zM50.97 5c0 1.4-.5 2.6-1.48 3.58a4.88 4.88 0 0 1-3.58 1.48c-1.41 0-2.6-.5-3.59-1.48a4.88 4.88 0 0 1-1.48-3.58c0-1.4.5-2.6 1.48-3.55A4.94 4.94 0 0 1 45.91.02c1.4 0 2.6.48 3.58 1.44A4.77 4.77 0 0 1 50.97 5zM94.79 47.9l9.84-44.72h3.3v18.77l-7.66 33.33H89.23L76.1 3.18h9.56l9.14 44.72zm38.46-44.72h9.56l-13.99 52.1h-10.97l-7.03-32V3.19h3.38l9.14 44.72 9.91-44.72zm31.23 11.95a17 17 0 0 1 7.04 1.87c2.1 1.1 3.87 2.55 5.3 4.36 1.43 1.8 2.55 3.9 3.34 6.29.8 2.39 1.2 4.94 1.2 7.66 0 2.72-.41 5.26-1.23 7.63a19.76 19.76 0 0 1-3.41 6.19 16.7 16.7 0 0 1-5.34 4.25 17.95 17.95 0 0 1-6.9 1.9v-6.75c2.35-.51 4.26-2 5.73-4.43 1.48-2.44 2.22-5.37 2.22-8.79 0-1.73-.18-3.36-.53-4.88-.35-1.53-.88-2.9-1.58-4.12a10.74 10.74 0 0 0-2.53-3.02 7.4 7.4 0 0 0-3.3-1.55v-6.6zm-19.61 20.04c0-2.72.4-5.25 1.2-7.6.79-2.34 1.93-4.39 3.4-6.14a17.37 17.37 0 0 1 5.31-4.26 18.28 18.28 0 0 1 6.82-1.97v6.54c-2.34.52-4.22 2-5.62 4.43-1.41 2.44-2.11 5.37-2.11 8.8 0 1.73.17 3.37.52 4.91.36 1.55.86 2.93 1.52 4.15a10.07 10.07 0 0 0 2.42 3.02 6.6 6.6 0 0 0 3.27 1.48v6.75c-2.58-.19-4.9-.83-6.96-1.93a17.17 17.17 0 0 1-5.27-4.33 19.07 19.07 0 0 1-3.34-6.25 24.52 24.52 0 0 1-1.16-7.6zm96.47-22a10.06 10.06 0 0 0-3.87-2.96c-1.45-.6-2.95-.91-4.5-.91h-.28V2.34h.07c2.81 0 5.44.46 7.87 1.4 2.44.94 4.62 2.35 6.54 4.22l-5.83 5.2zm-30.17 15.67c0-4.03.47-7.6 1.4-10.72a25.11 25.11 0 0 1 3.88-7.94c1.64-2.18 3.6-3.9 5.9-5.17a20.46 20.46 0 0 1 7.45-2.4v7.04c-1.4.37-2.7 1-3.9 1.9a12.1 12.1 0 0 0-3.16 3.69 20.48 20.48 0 0 0-2.15 5.7 38.04 38.04 0 0 0 0 15.92 22.6 22.6 0 0 0 2.15 5.94 13.45 13.45 0 0 0 3.16 3.97c1.2.99 2.5 1.67 3.9 2.04v6.4a20.08 20.08 0 0 1-7.45-2.42 18.77 18.77 0 0 1-5.9-5.24 25.56 25.56 0 0 1-3.87-7.98c-.94-3.12-1.4-6.7-1.4-10.73zm38.67-.56v20.04a15.17 15.17 0 0 1-3.62 3.34 22.33 22.33 0 0 1-8.79 3.34c-1.57.23-3.13.35-4.67.35h-.07v-6.19a24.96 24.96 0 0 0 4.6-.45c.87-.17 1.69-.39 2.46-.67a3.55 3.55 0 0 0 1.73-1.2v-12.8h-8.8v-5.76h17.16zm19.41-12.94l.91 4.08V55h-8.57V15.34h7.66zm33.19-.42a10.84 10.84 0 0 1 8.19 3.66 12.58 12.58 0 0 1 2.46 4.18c.59 1.62.88 3.36.88 5.24v27h-8.44V33.41c0-1.59-.01-3.1-.03-4.53a17 17 0 0 0-.46-3.83c-.28-1.13-.74-2-1.37-2.64-.63-.63-1.6-.95-2.92-.95-.33 0-1.03.07-2.1.21-1.09.14-2.33.54-3.74 1.2V17.3a18.96 18.96 0 0 1 3.87-1.76 12 12 0 0 1 3.66-.63zm-12.17 5.42a9.1 9.1 0 0 1 1.23 2.7c.26.96.43 1.96.5 3 .07 1.02.09 2.09.07 3.19-.03 1.1-.04 2.26-.04 3.48V55h-8.5V28.88c0-1.43-.15-2.7-.43-3.83s-.75-2-1.4-2.64c-.66-.63-1.62-.95-2.89-.95-.56 0-1.4.1-2.5.32-1.1.2-2.18.57-3.26 1.09V17.3c1.12-.65 2.33-1.2 3.62-1.61 1.29-.43 2.56-.64 3.83-.64 2.16 0 3.97.45 5.45 1.34 1.48.89 2.92 2.2 4.32 3.94zM326.07.37h8.5v49.92c-.05.66-.12 1.4-.21 2.25-.1.84-.16 1.66-.21 2.46h-8.09V.37zm34.66 27c.56 2.15.84 4.52.84 7.1 0 2.67-.32 5.27-.95 7.8a21.48 21.48 0 0 1-2.88 6.72 14.79 14.79 0 0 1-4.85 4.64 13.24 13.24 0 0 1-6.86 1.72c-1.64 0-3.21-.19-4.71-.56-1.5-.38-2.79-.9-3.87-1.55v-7.31c.7.8 1.54 1.45 2.5 1.97.96.51 2.03.77 3.2.77a7.2 7.2 0 0 0 3.83-1.05 9.74 9.74 0 0 0 2.95-2.85c.82-1.2 1.48-2.61 1.97-4.25a19.78 19.78 0 0 0 .07-10.48 16.7 16.7 0 0 0-1.83-4.36 9.54 9.54 0 0 0-2.84-3.02 6.7 6.7 0 0 0-3.8-1.13 7.5 7.5 0 0 0-3.34.74c-1 .5-1.91 1.2-2.7 2.14V16.9a14.3 14.3 0 0 1 3.58-1.4c1.31-.33 2.67-.5 4.08-.5 1.54 0 3.11.21 4.7.63 1.6.43 3.09 1.13 4.47 2.11 1.39.99 2.65 2.28 3.8 3.87a17.67 17.67 0 0 1 2.64 5.77zm50.41-24.19V55h-8.44V31.66h-19.54v-5.77h19.54V3.18h8.44zm-39.44 0h8.57V55h-8.57V3.18z"/></svg>