<svg version="1" xmlns="http://www.w3.org/2000/svg" width="933.333" height="933.333" viewBox="0 0 700.000000 700.000000"><path d="M361.3 78.6c-9.1 3.3-15.5 13.9-14.7 24.3 1 11.6 9.4 19.7 21.6 20.8 14.6 1.4 26.2-10.2 25.2-25-1-15.6-16.8-25.5-32.1-20.1zM574 77.6c-11.8 4.5-17.4 11.9-17.3 22.9.1 13.4 10.1 23.4 23.4 23.5 17 0 28.3-17.3 21.6-33.2-1.7-4.1-6.7-9.2-11.2-11.5-3-1.6-13.9-2.7-16.5-1.7zM465.8 82.4c-.1.2-2.8.6-5.8 1-12.6 1.3-30.8 8.4-41.5 16-12.3 8.8-24.7 24.1-31.3 38.6-4.4 9.7-8.6 22.7-9.8 30-.2 1.4-.6 3.4-.9 4.6-.2 1.1-.7 4.5-1 7.5-.4 3-.8 7-1.1 8.9-.5 4.6-.5 31.8 0 35 .2 1.4.7 5.3 1 8.7.4 3.5.8 6.8 1.1 7.5.2.7.6 2.9.9 4.8 2.4 15.3 12.3 38.1 21.8 50.2 12 15.2 25 24.3 43.8 30.9 3 1.1 6.6 2.2 8 2.4 1.4.3 3.4.7 4.5.9 1.2.2 4.5.7 7.5 1.1l5.5.7v-32.4l-7-1.8c-25-6.4-39.5-27.1-46-66-1-6-1.3-35.1-.5-42.5 1.6-13.7 2.3-17.1 4.7-25.5 7.7-26.8 23.4-43.2 44.8-46.9l3.9-.6.1-16.3c0-11.5-.3-16.3-1.1-16.6-.7-.3-1.4-.3-1.6-.2zM482.3 83.3c-.3.6-.7 7.9-.7 16.3l-.1 15.2 5.5 1.2c18.3 4 33.2 18.2 40.9 39 2.3 6.4 5.7 19.5 6.6 26 1.3 9.5 1.3 39.5 0 49.2-3.3 23.8-10.6 41.5-22.1 53.4-6.1 6.4-17.6 12.4-26.1 13.9-2.4.4-4.3 1.2-4.4 1.8-.3 4.4-.4 29.4-.1 30.5.3 1 1.8 1.1 5.6.7 55-6.7 88.3-52.5 88.9-122.5.3-33.8-7.2-62.4-22.1-84.9-13.7-20.8-38.7-36.6-62.9-39.7-2.1-.2-4.8-.6-6-.9-1.3-.2-2.6.1-3 .8zM103.6 206.7c.1 66.5.2 121.2.3 121.8.1.6 7.3 1 19.6 1H143l.1-6.5c0-7.9 0-231.6-.1-234.8V86h-39.5l.1 120.7zM156.9 88.6c-.1 5.2.2 26.8.4 27 .1.1 6.7.4 14.7.7 16 .6 22.6 2.2 30.2 7.5 11.9 8.2 16.7 18.4 17.4 36.2.8 24.6-7 41.3-22.9 48.5-7 3.2-13 4.1-27.2 4h-12l-.5 4.5c-.3 2.5-.4 9-.2 14.5l.3 10.1 12-.1 11.9-.1 3.1 6.1c8.7 16.6 15.8 30.4 22.9 44 4.4 8.2 10.6 20.2 13.9 26.5l6 11.4 20.1.1c11.1 0 20.4-.3 20.6-.7.4-.7-1.5-4.5-5.9-11.5-1.3-2.1-3.7-6.3-5.4-9.3-1.7-3-11.9-20.7-22.7-39.2-10.8-18.6-19.6-34.2-19.6-34.6 0-.5 2.4-2.1 5.3-3.6 11.4-6 23.9-18.2 29.5-28.7 6.2-11.5 9.5-26 9.5-40.9-.2-19.6-7.1-35.9-21.4-50.1-7.3-7.2-13-11.1-23.2-15.9-12.9-6.1-22.7-8.1-40.9-8.7l-15.8-.6-.1 2.9zM468.9 373.4c-.2.2-2.9.7-5.9 1.1-20.6 2.6-41.8 13-55 27.2-12.3 13-24 35.4-27.4 52.5-3.5 17.5-3.5 17.6-4.1 27-1.9 29.6.7 51.8 8.4 74.3 9.5 27.2 26.9 47.2 50.4 58 9.1 4.1 22.1 7.6 29.5 7.8l5.7.2v-15.9c0-13.3-.3-16-1.5-16.2-5.6-.9-11.8-2.8-15.3-4.5-20.1-10.2-32.7-33.3-36.4-66.9-.9-8-.9-32.3-.1-40.5 3.2-29.7 14.4-52.5 30.9-62.9 5-3.1 14.9-6.9 20.4-7.8 1.9-.3 2-1.1 2-16.1.1-14.3-.3-18.5-1.6-17.3zM483.6 388.9c.1 8.3.4 15.8.8 16.6.3.8 1.7 1.5 3 1.5 3.6 0 13.3 3.8 19.1 7.5 19.9 12.6 31.6 43.8 31.5 83.5-.1 36.1-9.3 64.6-25.6 78.9-5.6 4.9-17.2 10.8-22.9 11.6-2.2.3-4.3.9-4.8 1.4-.6.6-1.2 19.4-.8 29.5l.1 2.8 5.5-.6c21.1-2.3 39.4-10.8 54.1-25.2 23-22.5 34.8-56 34.8-98.4 0-8.7-1.3-29.1-1.9-30-.2-.3-.6-2.6-1-5-1.4-9.9-5.9-23.6-11.6-35.2-15-30.8-42.2-50.5-73.9-53.4l-6.5-.6.1 15.1zM98.5 379.3c.7 3.3 4.7 22.9 5.1 25.2.2 1.1 2.6 13 5.4 26.5 2.8 13.5 6.4 31 8 39 2.7 13.2 7.5 36.6 8.6 41.5.2 1.1.7 3.6 1 5.5.3 1.9.9 5.1 1.4 7 .7 2.9 2.9 13.3 6.6 32 .7 3.1 6.4 30.8 6.9 33.5.3 1.1 1.4 6.7 2.5 12.5s2.5 12.6 3.1 15.3l1.1 4.7 21.1-.2 21.2-.3.7-4c.4-2.2 1-5.8 1.3-8 .4-2.2 1-5.8 1.5-8s1.8-9.1 2.9-15.3c1.2-6.1 3-16 4.1-22 1.1-5.9 2.2-12.1 2.5-13.7.3-1.7 1.9-10 3.5-18.5 6.8-35.6 9-47.7 9.6-51.5.3-2.2 1.1-6.5 1.8-9.5.8-3.9 1.2-18.6 1.1-49.5l-.1-44h-6.3c-6.1 0-6.4.1-6.8 2.5-.2 1.4-.8 4.7-1.3 7.5-.6 2.7-2.1 11.3-3.4 19-1.4 7.7-3.2 17.9-4 22.8-.9 4.8-1.9 10.4-2.2 12.3-.3 2-.8 4.6-1 5.8-.2 1.1-.7 3.6-1 5.5-.3 1.8-.8 4.3-1 5.5-.2 1.1-.6 3.4-.9 5.1-.3 1.6-.8 4.1-1 5.5-1.1 5.5-1.6 8.1-4.6 25-3.5 20.2-3.1 18.3-6.4 36.5-1.4 7.7-2.7 15.1-3 16.5-1.7 8.5-2.6 14-3.2 17.5-.3 2.2-1.3 8-2.3 13-1.4 7.3-1.8 8.4-2.3 6-.7-3.3-3.5-20.2-4.2-25-.2-1.7-1-6.8-1.9-11.5-.8-4.7-1.7-10.3-2-12.5-.6-3.9-1.8-11.5-2.1-12.5-.1-.3-.5-2.8-1-5.5-.4-2.8-.9-5.9-1.1-7-.3-1.1-.9-5.2-1.4-9-.6-3.9-1.2-7.7-1.5-8.5-.2-.8-.7-3.5-1-6-.3-2.5-.8-5.6-1-7-.3-1.4-.8-3.6-1-5-.3-1.4-.8-4.3-1.1-6.5-.3-2.2-3.8-23.4-7.7-47l-7.2-43-18.3-.2-18.2-.2.5 2.2zM233 425c0 27.4.4 50 1 52.7 1.1 5.4 1.5 8 3.1 17.3.5 3.6 1.6 9.6 2.4 13.5.8 3.8 1.7 8.6 2 10.5 1.3 8 2.6 15.5 5.1 29 .8 4.7 2.2 12.3 2.9 16.9.8 4.6 1.7 9.1 1.9 10 .3.9.7 3.4 1 5.6.4 2.2 1.1 6.2 1.6 9 .5 2.7 1.2 6.6 1.5 8.5.4 1.9 1.3 7.3 2.1 12 .9 4.7 1.7 9.2 1.8 10 .2 1.3 3.6 1.5 21.4 1.8l21 .2.7-4c.4-2.2.6-4.1.5-4.2-.1-.2.3-1.6.9-3.1.6-1.5 1.3-4.2 1.6-6 .4-1.8 3.1-14.5 6.1-28.2 6.8-31 8.4-38.3 9-41.5.3-1.4.7-3.3 1-4.2.3-1 .7-3 1-4.5.3-1.6 2.2-10.7 4.4-20.3 2.1-9.6 4.1-18.7 4.4-20.3 1.4-6.7 1.9-9.2 5.7-26.2 2.3-9.9 4.2-18.9 4.5-19.9 1.1-5.6 5.9-27.4 7.9-36.6 1.3-5.8 2.6-11.9 2.9-13.5.8-4.2 1.3-6.5 2.1-9.8l.7-2.7-18.3.2-18.3.3-.8 4c-.4 2.2-1.6 8.9-2.7 15-1.2 6-2.3 12.8-2.7 15-.3 2.2-.9 5.8-1.4 8-.5 2.2-1.1 5.6-1.5 7.5-.3 1.9-1 5.7-1.5 8.5-.5 2.7-1.2 6.7-1.4 8.7-.3 2.1-1 5.7-1.5 8-.5 2.4-1.2 5.9-1.5 7.8-.3 1.9-2.3 13.4-4.5 25.5s-4.3 23.6-4.6 25.5c-.3 1.9-.8 4.6-1 6-1.1 5.5-1.6 7.9-3.1 16.5-2 11.9-1.8 10.6-5.3 29.8-1.7 9.3-3.2 17.9-3.3 19.3-.4 3.9-1.5 2.7-2.2-2.4-.4-2.6-.9-5.4-1.1-6.2-.3-1.5-2.1-12.5-3.1-19-.3-1.9-1.6-9.8-2.9-17.5-1.3-7.7-2.7-15.8-3-18-.3-2.3-.7-5-.9-6.2-.3-1.1-.7-3.8-1-5.9-.4-2.2-1-6.2-1.6-8.9-.5-2.8-1.2-6.8-1.5-8.9-.3-2.1-.7-4.8-1-6-.2-1.2-.7-3.9-1-6.1-.3-2.2-1.2-8.1-2.1-13-.8-5-1.7-10.4-2-12-.2-1.7-.9-5.5-1.4-8.5-.5-3-1.2-7.1-1.5-9-.3-1.9-1-6-1.5-9-1.8-10.6-2.2-12.6-5.1-30.3-1.6-9.7-2.9-18-2.9-18.2 0-.3-2.9-.5-6.5-.5H233v48z"/></svg>